#!OML:ASF F:\VICON\USERDATA\INSTALL\rory3\rory3.ASF
:FULLY-SPECIFIED
:DEGREES
205
root -1.26094 17.6403 4.54029 178.522 -7.64744 -177.62
lowerback 28.0033 -1.51893 3.75584
upperback 3.80446 -1.49428 4.32362
thorax -11.2073 -1.23167 3.39862
lowerneck -12.2432 -3.88283 -1.86036
upperneck 18.6278 -5.22669 -1.74639
head 7.76592 -2.99379 -0.829757
rclavicle -1.19271e-015 -6.91771e-014
rhumerus -0.681129 3.85038 -85.3023
rradius 92.2755
rwrist -10.7749
rhand -22.9019 8.61852
rfingers 7.12502
rthumb 3.5378 -21.3319
lclavicle -1.19271e-015 -6.91771e-014
lhumerus 0.804856 -21.6776 102.197
lradius 72.9208
lwrist 44.2512
lhand -4.57864 55.5067
lfingers 7.12502
lthumb 21.1982 -275.632
rfemur -9.51861 -1.88711 23.2288
rtibia 51.1496
rfoot -17.4739 -13.1352
rtoes -4.75704
lfemur -28.9214 2.07584 -22.4146
ltibia 33.9654
lfoot -2.39769 7.48441
ltoes 9.60484
206
root -1.30108 17.6524 4.45549 178.261 -9.26594 -177.841
lowerback 27.696 -2.04053 4.07193
upperback 3.61393 -2.04092 4.27557
thorax -11.2648 -1.47574 3.35262
lowerneck -12.0235 -4.08638 -2.49819
upperneck 18.4897 -5.48851 -1.20252
head 7.71704 -3.10767 -0.567017
rclavicle 2.5842e-014 -2.78299e-014
rhumerus -0.108286 3.66776 -84.8147
rradius 92.9332
rwrist -11.1665
rhand -22.6826 9.2259
rfingers 7.12502
rthumb 3.74959 -20.7209
lclavicle 2.5842e-014 -2.78299e-014
lhumerus 1.61248 -22.1309 101.888
lradius 73.4824
lwrist 44.4962
lhand -4.80872 53.9951
lfingers 7.12502
lthumb 20.9772 -277.119
rfemur -9.76663 -3.4105 22.6685
rtibia 52.7097
rfoot -16.135 -12.6217
rtoes -2.07665
lfemur -28.4793 0.889282 -22.9495
ltibia 34.1376
lfoot -2.11856 7.45265
ltoes 10.6989
207
root -1.32613 17.6625 4.38297 178.205 -8.78605 -178.412
lowerback 27.6427 -1.63505 3.28798
upperback 3.44776 -1.69482 4.10994
thorax -11.4271 -1.25853 3.48936
lowerneck -11.7531 -4.18494 -2.72315
upperneck 18.192 -5.61336 -0.986203
head 7.58518 -3.15595 -0.459426
rclavicle 2.34566e-014 -1.43125e-014
rhumerus 0.744935 3.45692 -84.4559
rradius 93.2791
rwrist -11.4478
rhand -22.608 9.6443
rfingers 7.12502
rthumb 3.82163 -20.3012
lclavicle 2.34566e-014 -1.43125e-014
lhumerus 2.47717 -22.5535 101.454
lradius 74.0452
lwrist 45.0021
lhand -5.28436 52.3597
lfingers 7.12502
lthumb 20.5202 -278.705
rfemur -10.6618 -3.06332 21.7532
rtibia 54.7355
rfoot -14.3943 -12.0131
rtoes 0.651178
lfemur -27.8489 1.21229 -23.654
ltibia 33.7697
lfoot -1.90401 8.00253
ltoes 12.3563
208
root -1.2869 17.6725 4.26348 176.145 -8.41912 -176.221
lowerback 28.7757 -1.3592 4.30935
upperback 3.81548 -1.08539 4.87691
thorax -11.5962 -1.08976 3.61369
lowerneck -11.6993 -4.32248 -2.8433
upperneck 17.9447 -5.77501 -0.897323
head 7.50245 -3.224 -0.420496
rclavicle 1.03368e-014 -3.49861e-014
rhumerus 1.62685 3.23046 -84.0161
rradius 93.6354
rwrist -11.6139
rhand -22.76 10.3396
rfingers 7.12502
rthumb 3.6749 -19.6085
lclavicle 1.03368e-014 -3.49861e-014
lhumerus 3.51532 -22.668 101.061
lradius 74.4997
lwrist 44.2827
lhand -3.62884 52.48
lfingers 7.12502
lthumb 22.1103 -278.764
rfemur -9.63138 -1.97648 24.6043
rtibia 56.5088
rfoot -13.1003 -12.7856
rtoes 3.12506
lfemur -25.6269 1.83724 -20.9733
ltibia 33.4083
lfoot -1.89462 7.88464
ltoes 12.9432
209
root -1.34881 17.6833 4.21714 177.835 -9.44833 -179.913
lowerback 27.5785 -1.26599 1.42355
upperback 3.24768 -1.69942 3.80198
thorax -11.5939 -1.13856 4.21548
lowerneck -11.8086 -4.34882 -2.7752
upperneck 17.7987 -5.7775 -0.999118
head 7.46871 -3.22178 -0.464065
rclavicle -5.96354e-015 -1.98785e-014
rhumerus 2.32073 2.85629 -83.6056
rradius 94.1591
rwrist -11.5995
rhand -22.6038 10.7925
rfingers 7.12502
rthumb 3.82573 -19.1529
lclavicle -5.96354e-015 -1.98785e-014
lhumerus 4.48054 -23.2112 100.538
lradius 75.1823
lwrist 45.0159
lhand -4.38884 51.255
lfingers 7.12502
lthumb 21.3805 -279.905
rfemur -11.9098 -3.39583 19.7296
rtibia 58.8273
rfoot -11.953 -10.9651
rtoes 2.84183
lfemur -26.1838 1.31807 -25.5088
ltibia 33.1095
lfoot -1.98679 7.68498
ltoes 11.9305
210
root -1.38558 17.6763 4.17318 177.988 -9.40469 -181.299
lowerback 27.6401 -1.00685 0.27498
upperback 3.05915 -1.67648 3.30375
thorax -11.8346 -1.04672 4.30807
lowerneck -11.6295 -4.40133 -2.70836
upperneck 17.3337 -5.84941 -0.88842
head 7.28681 -3.22774 -0.431
rclavicle -4.01545e-014 5.32743e-014
rhumerus 2.92228 2.37577 -83.3607
rradius 94.8262
rwrist -11.4155
rhand -22.129 10.8383
rfingers 7.12502
rthumb 4.28424 -19.0984
lclavicle -4.01545e-014 5.32743e-014
lhumerus 5.58333 -23.5506 99.8518
lradius 75.6634
lwrist 44.9379
lhand -3.8864 50.7296
lfingers 7.12502
lthumb 21.863 -280.486
rfemur -13.0563 -3.48789 17.7212
rtibia 60.8464
rfoot -9.99594 -9.85704
rtoes 1.214
lfemur -25.7098 1.4645 -27.2004
ltibia 32.9723
lfoot -2.19453 7.72143
ltoes 12.6913
211
root -1.38311 17.679 4.08242 176.388 -8.19884 -178.88
lowerback 28.3076 -0.57185 1.87738
upperback 3.39419 -0.681545 3.9864
thorax -11.8605 -0.714682 3.82256
lowerneck -11.5809 -4.54014 -2.7483
upperneck 16.8753 -6.00042 -0.843753
head 7.1332 -3.28314 -0.413453
rclavicle -8.74653e-015 9.54166e-014
rhumerus 3.86753 1.68915 -83.0521
rradius 95.192
rwrist -11.3859
rhand -21.3908 10.6569
rfingers 7.12502
rthumb 4.99701 -19.2642
lclavicle -8.74653e-015 9.54166e-014
lhumerus 6.7356 -23.7897 99.3416
lradius 76.0576
lwrist 44.2381
lhand -2.7274 50.4961
lfingers 7.12502
lthumb 22.9756 -280.853
rfemur -12.8774 -1.67348 20.676
rtibia 62.5065
rfoot -8.33605 -10.3043
rtoes 3.78107
lfemur -24.1521 2.53213 -24.3065
ltibia 32.8539
lfoot -2.53809 7.90206
ltoes 13.7119
212
root -1.42022 17.6839 3.99033 176.583 -10.96 -179.446
lowerback 27.3774 -1.46651 2.05064
upperback 3.2826 -1.77871 3.84912
thorax -11.4578 -1.20612 3.92194
lowerneck -11.8974 -4.6959 -3.01933
upperneck 16.6599 -6.13971 -0.703366
head 7.13393 -3.33912 -0.342108
rclavicle 1.78906e-014 3.73715e-014
rhumerus 5.42081 0.856094 -82.5527
rradius 95.3276
rwrist -12.027
rhand -20.4849 10.5158
rfingers 7.12502
rthumb 5.87168 -19.3829
lclavicle 1.78906e-014 3.73715e-014
lhumerus 8.01596 -24.0232 98.8849
lradius 76.445
lwrist 43.3531
lhand -1.72406 50.3383
lfingers 7.12502
lthumb 23.938 -281.134
rfemur -13.4791 -4.02211 19.6444
rtibia 64.0915
rfoot -7.30076 -9.77759
rtoes 7.5929
lfemur -24.0506 0.59265 -25.3207
ltibia 33.0508
lfoot -2.71089 7.19406
ltoes 12.9559
213
root -1.42175 17.6682 3.93474 176.062 -12.7437 -179.54
lowerback 27.6864 -1.9217 2.00825
upperback 3.103 -2.33515 3.903
thorax -11.7965 -1.44225 4.24053
lowerneck -11.3961 -4.82543 -3.25434
upperneck 16.1352 -6.28062 -0.66093
head 6.88779 -3.41133 -0.279945
rclavicle 7.71285e-014 -1.11319e-014
rhumerus 6.70464 0.0633314 -82.0802
rradius 95.4103
rwrist -12.5647
rhand -19.3736 10.4285
rfingers 7.12502
rthumb 6.94453 -19.4376
lclavicle 7.71285e-014 -1.11319e-014
lhumerus 9.00954 -24.1056 98.5293
lradius 76.7782
lwrist 42.693
lhand -0.937134 50.5425
lfingers 7.12502
lthumb 24.6925 -281.031
rfemur -13.7189 -5.2684 19.3618
rtibia 65.5683
rfoot -6.11541 -9.5854
rtoes 10.57
lfemur -23.5767 -0.427 -25.6228
ltibia 33.4814
lfoot -2.8234 6.59237
ltoes 12.7832
214
root -1.43789 17.6801 3.83231 175.813 -11.744 -179.541
lowerback 27.2899 -1.34144 1.50603
upperback 3.02063 -1.70252 3.92786
thorax -11.704 -1.11463 4.30606
lowerneck -11.0069 -4.94135 -3.40632
upperneck 15.9052 -6.4238 -0.686563
head 6.75244 -3.49238 -0.261827
rclavicle 3.89618e-014 3.18055e-015
rhumerus 7.27807 -0.742037 -81.7829
rradius 95.6085
rwrist -12.8244
rhand -18.3785 10.5682
rfingers 7.12502
rthumb 7.90501 -19.264
lclavicle 3.89618e-014 3.18055e-015
lhumerus 9.51652 -23.9596 98.3904
lradius 77.2482
lwrist 41.9118
lhand -0.220356 50.9999
lfingers 7.12502
lthumb 25.3793 -280.669
rfemur -14.4227 -3.93446 19.4425
rtibia 66.9739
rfoot -5.02616 -9.6289
rtoes 11.2611
lfemur -22.9465 0.826585 -25.5134
ltibia 33.4505
lfoot -3.20532 6.40591
ltoes 12.144
215
root -1.45907 17.6783 3.75661 175.681 -12.3513 -179.739
lowerback 27.1708 -1.42791 1.3835
upperback 2.75221 -1.7961 3.83774
thorax -11.9472 -1.12311 4.31183
lowerneck -10.2265 -4.98699 -3.65588
upperneck 15.2828 -6.50224 -0.425498
head 6.43666 -3.51811 -0.111649
rclavicle 3.10104e-014 2.46493e-014
rhumerus 7.39767 -1.72609 -81.7418
rradius 96.0568
rwrist -13.0191
rhand -17.8224 11.275
rfingers 7.12502
rthumb 8.44175 -18.5363
lclavicle 3.10104e-014 2.46493e-014
lhumerus 9.63584 -23.7744 98.3759
lradius 78.0111
lwrist 41.3009
lhand -0.213609 51.113
lfingers 7.12502
lthumb 25.3858 -280.557
rfemur -14.9938 -4.25437 18.9949
rtibia 68.3067
rfoot -4.67236 -9.749
rtoes 9.0075
lfemur -22.5774 0.528266 -25.8833
ltibia 33.5936
lfoot -3.39054 6.10057
ltoes 9.72694
216
root -1.47661 17.6708 3.70181 175.278 -13.1797 -180.166
lowerback 27.6858 -1.52397 1.07994
upperback 2.56908 -1.97478 3.70237
thorax -12.4181 -1.16909 4.43708
lowerneck -9.34401 -5.00845 -4.05409
upperneck 14.2848 -6.54539 0.107937
head 6.00099 -3.50381 0.159778
rclavicle -2.38542e-014 -2.38542e-014
rhumerus 7.99206 -2.95259 -81.8496
rradius 96.5779
rwrist -13.14
rhand -17.3485 11.9993
rfingers 7.12502
rthumb 8.89903 -17.793
lclavicle -2.38542e-014 -2.38542e-014
lhumerus 10.0836 -23.7328 98.242
lradius 78.5756
lwrist 41.0162
lhand -0.256236 50.9019
lfingers 7.12502
lthumb 25.3449 -280.762
rfemur -15.2201 -4.76818 18.285
rtibia 69.5063
rfoot -5.82508 -10.2552
rtoes 10.7744
lfemur -21.8928 0.41798 -26.5113
ltibia 33.7624
lfoot -3.56609 5.46305
ltoes 7.54177
217
root -1.49276 17.6623 3.63661 175.07 -13.3549 -180.203
lowerback 27.8221 -1.4373 0.977445
upperback 2.32719 -1.84321 3.66694
thorax -12.7805 -1.07801 4.42596
lowerneck -9.07281 -5.06591 -4.16816
upperneck 13.8764 -6.60981 0.194012
head 5.83426 -3.52704 0.214643
rclavicle -9.14409e-015 -2.22639e-014
rhumerus 8.87546 -3.99478 -81.7899
rradius 96.6679
rwrist -13.9225
rhand -17.9512 13.6156
rfingers 7.12502
rthumb 8.31741 -16.2007
lclavicle -9.14409e-015 -2.22639e-014
lhumerus 10.747 -23.6294 98.0485
lradius 78.8127
lwrist 41.2208
lhand -0.240917 50.7545
lfingers 7.12502
lthumb 25.3596 -280.912
rfemur -15.8963 -4.6177 18.1539
rtibia 70.5897
rfoot -6.25045 -10.5875
rtoes 11.7575
lfemur -21.5689 0.614556 -26.63
ltibia 33.9608
lfoot -3.76781 5.29677
ltoes 6.90288
218
root -1.50777 17.6565 3.54991 175.052 -13.6384 -180.169
lowerback 27.4573 -1.39138 0.919369
upperback 2.10284 -1.75477 3.66755
thorax -12.8538 -1.01143 4.41507
lowerneck -9.33887 -5.08294 -3.91542
upperneck 14.0937 -6.61051 -0.162509
head 5.92715 -3.54268 0.0517703
rclavicle -1.55052e-014 6.83819e-014
rhumerus 9.9152 -4.90428 -81.5572
rradius 96.405
rwrist -14.8088
rhand -18.3024 14.8311
rfingers 7.12502
rthumb 7.97847 -14.9983
lclavicle -1.55052e-014 6.83819e-014
lhumerus 11.3263 -23.4605 97.9464
lradius 79.1648
lwrist 42.0336
lhand -0.6516 50.6334
lfingers 7.12502
lthumb 24.9661 -280.978
rfemur -16.6787 -4.58467 18.1478
rtibia 71.4765
rfoot -6.69885 -11.0105
rtoes 12.7334
lfemur -21.4025 0.667436 -26.6484
ltibia 34.1856
lfoot -4.15202 5.28416
ltoes 8.80469
219
root -1.5253 17.6546 3.47109 174.901 -14.142 -180.251
lowerback 27.1746 -1.39105 0.829515
upperback 2.06517 -1.77137 3.65592
thorax -12.7437 -1.00898 4.44399
lowerneck -9.53833 -5.40915 -3.74634
upperneck 13.797 -6.99148 -0.529972
head 5.85525 -3.73434 -0.12058
rclavicle -1.63003e-014 -5.56597e-014
rhumerus 10.8317 -6.09662 -81.4315
rradius 96.9601
rwrist -14.6127
rhand -17.0705 11.8988
rfingers 7.12502
rthumb 9.16731 -17.8819
lclavicle -1.63003e-014 -5.56597e-014
lhumerus 12.1661 -23.3131 97.7581
lradius 79.5886
lwrist 43.0756
lhand -0.90554 51.4711
lfingers 7.12502
lthumb 24.7227 -280.106
rfemur -17.2119 -4.66819 17.9609
rtibia 72.1702
rfoot -7.61114 -11.5751
rtoes 12.9521
lfemur -21.067 0.539826 -26.8241
ltibia 34.4687
lfoot -4.64192 5.20955
ltoes 11.4828
